<mxfile host="app.diagrams.net" modified="2024-05-23T08:26:53.406Z" agent="Mozilla/5.0 (Windows NT 10.0; Win64; x64) AppleWebKit/537.36 (KHTML, like Gecko) Chrome/125.0.0.0 Safari/537.36 Edg/125.0.0.0" etag="hUwXAcg8dxldvdjZUM2J" version="24.4.5" type="github">
  <diagram name="Page-1" id="w7Cxp5lwcTWNBOXYcleK">
    <mxGraphModel dx="2499" dy="740" grid="0" gridSize="10" guides="1" tooltips="1" connect="1" arrows="1" fold="1" page="1" pageScale="1" pageWidth="850" pageHeight="1100" math="0" shadow="0">
      <root>
        <mxCell id="0" />
        <mxCell id="1" parent="0" />
        <mxCell id="WDNG_T85-IMVq7KmOstd-1" value="" style="rounded=0;whiteSpace=wrap;html=1;" vertex="1" parent="1">
          <mxGeometry x="25.25" y="177" width="231" height="299" as="geometry" />
        </mxCell>
        <mxCell id="WDNG_T85-IMVq7KmOstd-2" value="" style="endArrow=none;html=1;rounded=0;" edge="1" parent="1">
          <mxGeometry width="50" height="50" relative="1" as="geometry">
            <mxPoint x="22.25" y="216" as="sourcePoint" />
            <mxPoint x="256.25" y="216" as="targetPoint" />
          </mxGeometry>
        </mxCell>
        <mxCell id="WDNG_T85-IMVq7KmOstd-3" value="log in" style="rounded=0;whiteSpace=wrap;html=1;" vertex="1" parent="1">
          <mxGeometry x="194.25" y="185" width="55" height="22" as="geometry" />
        </mxCell>
        <mxCell id="WDNG_T85-IMVq7KmOstd-4" value="Books4You" style="text;html=1;align=center;verticalAlign=middle;whiteSpace=wrap;rounded=0;" vertex="1" parent="1">
          <mxGeometry x="39.25" y="181" width="60" height="30" as="geometry" />
        </mxCell>
        <mxCell id="WDNG_T85-IMVq7KmOstd-5" value="comedy" style="whiteSpace=wrap;html=1;aspect=fixed;" vertex="1" parent="1">
          <mxGeometry x="39.25" y="254" width="53" height="53" as="geometry" />
        </mxCell>
        <mxCell id="WDNG_T85-IMVq7KmOstd-6" value="Categories&amp;nbsp;" style="text;html=1;align=center;verticalAlign=middle;whiteSpace=wrap;rounded=0;" vertex="1" parent="1">
          <mxGeometry x="35.75" y="220" width="60" height="30" as="geometry" />
        </mxCell>
        <mxCell id="WDNG_T85-IMVq7KmOstd-7" value="Horror-Crime-mystery" style="whiteSpace=wrap;html=1;aspect=fixed;" vertex="1" parent="1">
          <mxGeometry x="110.25" y="254" width="53" height="53" as="geometry" />
        </mxCell>
        <mxCell id="WDNG_T85-IMVq7KmOstd-8" value="SCI-Fiction" style="whiteSpace=wrap;html=1;aspect=fixed;" vertex="1" parent="1">
          <mxGeometry x="181.25" y="254" width="53" height="53" as="geometry" />
        </mxCell>
        <mxCell id="WDNG_T85-IMVq7KmOstd-9" value="fantasy-fairy tale" style="whiteSpace=wrap;html=1;aspect=fixed;" vertex="1" parent="1">
          <mxGeometry x="39.25" y="321" width="53" height="53" as="geometry" />
        </mxCell>
        <mxCell id="WDNG_T85-IMVq7KmOstd-10" value="movie books" style="whiteSpace=wrap;html=1;aspect=fixed;" vertex="1" parent="1">
          <mxGeometry x="110.25" y="321" width="53" height="53" as="geometry" />
        </mxCell>
        <mxCell id="WDNG_T85-IMVq7KmOstd-11" value="drama-romance" style="whiteSpace=wrap;html=1;aspect=fixed;" vertex="1" parent="1">
          <mxGeometry x="181.25" y="321" width="53" height="53" as="geometry" />
        </mxCell>
        <mxCell id="WDNG_T85-IMVq7KmOstd-12" value="kids" style="whiteSpace=wrap;html=1;aspect=fixed;" vertex="1" parent="1">
          <mxGeometry x="39.25" y="388" width="53" height="53" as="geometry" />
        </mxCell>
        <mxCell id="WDNG_T85-IMVq7KmOstd-13" value="learning" style="whiteSpace=wrap;html=1;aspect=fixed;" vertex="1" parent="1">
          <mxGeometry x="110.25" y="388" width="53" height="53" as="geometry" />
        </mxCell>
        <mxCell id="WDNG_T85-IMVq7KmOstd-14" value="novels" style="whiteSpace=wrap;html=1;aspect=fixed;" vertex="1" parent="1">
          <mxGeometry x="181.25" y="388" width="53" height="53" as="geometry" />
        </mxCell>
        <mxCell id="WDNG_T85-IMVq7KmOstd-15" value="" style="endArrow=classic;html=1;rounded=0;" edge="1" parent="1">
          <mxGeometry width="50" height="50" relative="1" as="geometry">
            <mxPoint x="256.25" y="333" as="sourcePoint" />
            <mxPoint x="380.25" y="333" as="targetPoint" />
          </mxGeometry>
        </mxCell>
        <mxCell id="WDNG_T85-IMVq7KmOstd-16" value="" style="rounded=0;whiteSpace=wrap;html=1;" vertex="1" parent="1">
          <mxGeometry x="383.25" y="177" width="231" height="284" as="geometry" />
        </mxCell>
        <mxCell id="WDNG_T85-IMVq7KmOstd-17" value="" style="endArrow=none;html=1;rounded=0;exitX=0.003;exitY=0.139;exitDx=0;exitDy=0;exitPerimeter=0;" edge="1" parent="1" source="WDNG_T85-IMVq7KmOstd-16">
          <mxGeometry width="50" height="50" relative="1" as="geometry">
            <mxPoint x="532.25" y="216" as="sourcePoint" />
            <mxPoint x="614.25" y="216" as="targetPoint" />
          </mxGeometry>
        </mxCell>
        <mxCell id="WDNG_T85-IMVq7KmOstd-18" value="log in" style="rounded=0;whiteSpace=wrap;html=1;" vertex="1" parent="1">
          <mxGeometry x="552.25" y="185" width="55" height="22" as="geometry" />
        </mxCell>
        <mxCell id="WDNG_T85-IMVq7KmOstd-19" value="Books4You" style="text;html=1;align=center;verticalAlign=middle;whiteSpace=wrap;rounded=0;" vertex="1" parent="1">
          <mxGeometry x="390.25" y="181" width="60" height="30" as="geometry" />
        </mxCell>
        <mxCell id="WDNG_T85-IMVq7KmOstd-20" value="name of thee book and a pic" style="whiteSpace=wrap;html=1;aspect=fixed;fontSize=8;" vertex="1" parent="1">
          <mxGeometry x="397.25" y="254" width="53" height="53" as="geometry" />
        </mxCell>
        <mxCell id="WDNG_T85-IMVq7KmOstd-21" value="comedy" style="text;html=1;align=center;verticalAlign=middle;whiteSpace=wrap;rounded=0;" vertex="1" parent="1">
          <mxGeometry x="393.75" y="220" width="60" height="30" as="geometry" />
        </mxCell>
        <mxCell id="WDNG_T85-IMVq7KmOstd-30" value="when we click on one category it will take us to the next page where we can find the books" style="text;html=1;align=center;verticalAlign=middle;whiteSpace=wrap;rounded=0;fontSize=10;" vertex="1" parent="1">
          <mxGeometry x="260.25" y="272" width="123" height="30" as="geometry" />
        </mxCell>
        <mxCell id="WDNG_T85-IMVq7KmOstd-31" value="search button" style="text;html=1;align=center;verticalAlign=middle;whiteSpace=wrap;rounded=0;fontSize=7;" vertex="1" parent="1">
          <mxGeometry x="509.25" y="186.5" width="40" height="20.5" as="geometry" />
        </mxCell>
        <mxCell id="WDNG_T85-IMVq7KmOstd-33" value="My book list" style="rounded=0;whiteSpace=wrap;html=1;" vertex="1" parent="1">
          <mxGeometry x="39.25" y="448" width="89" height="23" as="geometry" />
        </mxCell>
        <mxCell id="WDNG_T85-IMVq7KmOstd-34" value="" style="endArrow=classic;html=1;rounded=0;exitX=0.612;exitY=1.043;exitDx=0;exitDy=0;exitPerimeter=0;" edge="1" parent="1">
          <mxGeometry width="50" height="50" relative="1" as="geometry">
            <mxPoint x="83.96800000000002" y="470.999" as="sourcePoint" />
            <mxPoint x="83.25" y="496" as="targetPoint" />
          </mxGeometry>
        </mxCell>
        <mxCell id="WDNG_T85-IMVq7KmOstd-36" value="will show only if they are registered" style="text;html=1;align=center;verticalAlign=middle;whiteSpace=wrap;rounded=0;fontSize=7;" vertex="1" parent="1">
          <mxGeometry x="20" y="490" width="127.5" height="30" as="geometry" />
        </mxCell>
        <mxCell id="WDNG_T85-IMVq7KmOstd-39" value="My book list" style="rounded=0;whiteSpace=wrap;html=1;" vertex="1" parent="1">
          <mxGeometry x="518.25" y="223.5" width="89" height="23" as="geometry" />
        </mxCell>
        <mxCell id="WDNG_T85-IMVq7KmOstd-40" value="name of thee book and a pic" style="whiteSpace=wrap;html=1;aspect=fixed;fontSize=8;" vertex="1" parent="1">
          <mxGeometry x="465.25" y="254" width="53" height="53" as="geometry" />
        </mxCell>
        <mxCell id="WDNG_T85-IMVq7KmOstd-41" value="name of thee book and a pic" style="whiteSpace=wrap;html=1;aspect=fixed;fontSize=8;" vertex="1" parent="1">
          <mxGeometry x="536.25" y="254" width="53" height="53" as="geometry" />
        </mxCell>
        <mxCell id="WDNG_T85-IMVq7KmOstd-42" value="name of thee book and a pic" style="whiteSpace=wrap;html=1;aspect=fixed;fontSize=8;" vertex="1" parent="1">
          <mxGeometry x="397.25" y="317" width="53" height="53" as="geometry" />
        </mxCell>
        <mxCell id="WDNG_T85-IMVq7KmOstd-43" value="name of thee book and a pic" style="whiteSpace=wrap;html=1;aspect=fixed;fontSize=8;" vertex="1" parent="1">
          <mxGeometry x="465.25" y="317" width="53" height="53" as="geometry" />
        </mxCell>
        <mxCell id="WDNG_T85-IMVq7KmOstd-44" value="name of thee book and a pic" style="whiteSpace=wrap;html=1;aspect=fixed;fontSize=8;" vertex="1" parent="1">
          <mxGeometry x="536.25" y="317" width="53" height="53" as="geometry" />
        </mxCell>
        <mxCell id="WDNG_T85-IMVq7KmOstd-45" value="name of thee book and a pic" style="whiteSpace=wrap;html=1;aspect=fixed;fontSize=8;" vertex="1" parent="1">
          <mxGeometry x="400.25" y="385" width="53" height="53" as="geometry" />
        </mxCell>
        <mxCell id="WDNG_T85-IMVq7KmOstd-46" value="name of thee book and a pic" style="whiteSpace=wrap;html=1;aspect=fixed;fontSize=8;" vertex="1" parent="1">
          <mxGeometry x="465.25" y="385" width="53" height="53" as="geometry" />
        </mxCell>
        <mxCell id="WDNG_T85-IMVq7KmOstd-47" value="name of thee book and a pic" style="whiteSpace=wrap;html=1;aspect=fixed;fontSize=8;" vertex="1" parent="1">
          <mxGeometry x="536.25" y="385" width="53" height="53" as="geometry" />
        </mxCell>
        <mxCell id="WDNG_T85-IMVq7KmOstd-48" value="" style="endArrow=classic;html=1;rounded=0;" edge="1" parent="1">
          <mxGeometry width="50" height="50" relative="1" as="geometry">
            <mxPoint x="491.37" y="457" as="sourcePoint" />
            <mxPoint x="491.25" y="539" as="targetPoint" />
          </mxGeometry>
        </mxCell>
        <mxCell id="WDNG_T85-IMVq7KmOstd-49" value="" style="rounded=0;whiteSpace=wrap;html=1;" vertex="1" parent="1">
          <mxGeometry x="383.25" y="541" width="231" height="284" as="geometry" />
        </mxCell>
        <mxCell id="WDNG_T85-IMVq7KmOstd-50" value="" style="endArrow=none;html=1;rounded=0;exitX=0.003;exitY=0.139;exitDx=0;exitDy=0;exitPerimeter=0;" edge="1" parent="1" source="WDNG_T85-IMVq7KmOstd-49">
          <mxGeometry width="50" height="50" relative="1" as="geometry">
            <mxPoint x="532.25" y="580" as="sourcePoint" />
            <mxPoint x="614.25" y="580" as="targetPoint" />
          </mxGeometry>
        </mxCell>
        <mxCell id="WDNG_T85-IMVq7KmOstd-51" value="log in" style="rounded=0;whiteSpace=wrap;html=1;" vertex="1" parent="1">
          <mxGeometry x="552.25" y="549" width="55" height="22" as="geometry" />
        </mxCell>
        <mxCell id="WDNG_T85-IMVq7KmOstd-52" value="Books4You" style="text;html=1;align=center;verticalAlign=middle;whiteSpace=wrap;rounded=0;" vertex="1" parent="1">
          <mxGeometry x="390.25" y="545" width="60" height="30" as="geometry" />
        </mxCell>
        <mxCell id="WDNG_T85-IMVq7KmOstd-54" value="Book name" style="text;html=1;align=center;verticalAlign=middle;whiteSpace=wrap;rounded=0;fontSize=11;" vertex="1" parent="1">
          <mxGeometry x="389.25" y="584" width="73.5" height="30" as="geometry" />
        </mxCell>
        <mxCell id="WDNG_T85-IMVq7KmOstd-56" value="Add to book list" style="rounded=0;whiteSpace=wrap;html=1;fontSize=10;" vertex="1" parent="1">
          <mxGeometry x="518.25" y="587.5" width="89" height="23" as="geometry" />
        </mxCell>
        <mxCell id="WDNG_T85-IMVq7KmOstd-65" value="After choosing the book it will take you to the details page&amp;nbsp;" style="text;html=1;align=center;verticalAlign=middle;whiteSpace=wrap;rounded=0;fontSize=10;" vertex="1" parent="1">
          <mxGeometry x="505.25" y="484" width="123" height="30" as="geometry" />
        </mxCell>
        <mxCell id="WDNG_T85-IMVq7KmOstd-66" value="Book pic" style="whiteSpace=wrap;html=1;aspect=fixed;" vertex="1" parent="1">
          <mxGeometry x="399.25" y="619" width="54" height="54" as="geometry" />
        </mxCell>
        <mxCell id="WDNG_T85-IMVq7KmOstd-67" value="author:&lt;div style=&quot;font-size: 8px;&quot;&gt;publish date:&lt;/div&gt;&lt;div style=&quot;font-size: 8px;&quot;&gt;&lt;br style=&quot;font-size: 8px;&quot;&gt;&lt;/div&gt;" style="text;html=1;align=center;verticalAlign=middle;whiteSpace=wrap;rounded=0;fontSize=8;" vertex="1" parent="1">
          <mxGeometry x="390.25" y="678" width="73.5" height="30" as="geometry" />
        </mxCell>
        <mxCell id="WDNG_T85-IMVq7KmOstd-68" value="summery" style="whiteSpace=wrap;html=1;aspect=fixed;" vertex="1" parent="1">
          <mxGeometry x="493.25" y="627" width="93" height="93" as="geometry" />
        </mxCell>
        <mxCell id="WDNG_T85-IMVq7KmOstd-69" value="people review and rate the book. also, they can delete their review" style="rounded=0;whiteSpace=wrap;html=1;" vertex="1" parent="1">
          <mxGeometry x="453.25" y="743" width="120" height="60" as="geometry" />
        </mxCell>
        <mxCell id="WDNG_T85-IMVq7KmOstd-70" value="&lt;div style=&quot;font-size: 6px;&quot;&gt;find book in:&lt;/div&gt;&lt;div style=&quot;font-size: 6px;&quot;&gt;name of place - link - price&lt;/div&gt;" style="text;html=1;align=center;verticalAlign=middle;whiteSpace=wrap;rounded=0;fontSize=6;" vertex="1" parent="1">
          <mxGeometry x="393.75" y="702" width="73.5" height="30" as="geometry" />
        </mxCell>
        <mxCell id="WDNG_T85-IMVq7KmOstd-71" value="the user can&#39;t add a book to the list unless they register first, but they can read the reviews and search for books" style="text;html=1;align=center;verticalAlign=middle;whiteSpace=wrap;rounded=0;" vertex="1" parent="1">
          <mxGeometry x="626.25" y="648" width="173" height="30" as="geometry" />
        </mxCell>
        <mxCell id="WDNG_T85-IMVq7KmOstd-72" value="if there are more chapters will appear here" style="rounded=0;whiteSpace=wrap;html=1;fontSize=8;" vertex="1" parent="1">
          <mxGeometry x="395.25" y="737.5" width="50" height="71" as="geometry" />
        </mxCell>
        <mxCell id="WDNG_T85-IMVq7KmOstd-73" value="The user can add the book to their own list&amp;nbsp;&amp;nbsp;" style="text;html=1;align=center;verticalAlign=middle;whiteSpace=wrap;rounded=0;" vertex="1" parent="1">
          <mxGeometry x="631.25" y="584" width="173" height="30" as="geometry" />
        </mxCell>
        <mxCell id="WDNG_T85-IMVq7KmOstd-74" value="" style="endArrow=classic;html=1;rounded=0;entryX=-0.017;entryY=0.286;entryDx=0;entryDy=0;entryPerimeter=0;" edge="1" parent="1">
          <mxGeometry width="50" height="50" relative="1" as="geometry">
            <mxPoint x="607.25" y="598.71" as="sourcePoint" />
            <mxPoint x="639.309" y="599.29" as="targetPoint" />
          </mxGeometry>
        </mxCell>
        <mxCell id="WDNG_T85-IMVq7KmOstd-75" value="" style="rounded=0;whiteSpace=wrap;html=1;" vertex="1" parent="1">
          <mxGeometry x="628.25" y="177" width="208" height="271" as="geometry" />
        </mxCell>
        <mxCell id="WDNG_T85-IMVq7KmOstd-76" value="" style="endArrow=classic;html=1;rounded=0;exitX=1;exitY=0.5;exitDx=0;exitDy=0;" edge="1" parent="1" source="WDNG_T85-IMVq7KmOstd-39">
          <mxGeometry width="50" height="50" relative="1" as="geometry">
            <mxPoint x="650.25" y="298" as="sourcePoint" />
            <mxPoint x="629.25" y="234" as="targetPoint" />
          </mxGeometry>
        </mxCell>
        <mxCell id="WDNG_T85-IMVq7KmOstd-77" value="users book list" style="text;html=1;align=center;verticalAlign=middle;whiteSpace=wrap;rounded=0;" vertex="1" parent="1">
          <mxGeometry x="677.25" y="151" width="91.5" height="30" as="geometry" />
        </mxCell>
        <mxCell id="WDNG_T85-IMVq7KmOstd-78" value="My book list" style="rounded=0;whiteSpace=wrap;html=1;" vertex="1" parent="1">
          <mxGeometry x="641.25" y="186.5" width="89" height="23" as="geometry" />
        </mxCell>
        <mxCell id="WDNG_T85-IMVq7KmOstd-79" value="name of thee book and a pic" style="whiteSpace=wrap;html=1;aspect=fixed;fontSize=8;" vertex="1" parent="1">
          <mxGeometry x="644.25" y="226" width="53" height="53" as="geometry" />
        </mxCell>
        <mxCell id="WDNG_T85-IMVq7KmOstd-80" value="name of thee book and a pic" style="whiteSpace=wrap;html=1;aspect=fixed;fontSize=8;" vertex="1" parent="1">
          <mxGeometry x="644.25" y="292.5" width="53" height="53" as="geometry" />
        </mxCell>
        <mxCell id="WDNG_T85-IMVq7KmOstd-81" value="name of thee book and a pic" style="whiteSpace=wrap;html=1;aspect=fixed;fontSize=8;" vertex="1" parent="1">
          <mxGeometry x="644.25" y="358" width="53" height="53" as="geometry" />
        </mxCell>
        <mxCell id="WDNG_T85-IMVq7KmOstd-83" value="Users page" style="text;html=1;align=center;verticalAlign=middle;whiteSpace=wrap;rounded=0;fontSize=20;" vertex="1" parent="1">
          <mxGeometry x="11.19" y="99" width="145.12" height="30" as="geometry" />
        </mxCell>
        <mxCell id="WDNG_T85-IMVq7KmOstd-84" value="" style="rounded=0;whiteSpace=wrap;html=1;" vertex="1" parent="1">
          <mxGeometry x="-822.75" y="177" width="231" height="299" as="geometry" />
        </mxCell>
        <mxCell id="WDNG_T85-IMVq7KmOstd-85" value="" style="endArrow=none;html=1;rounded=0;" edge="1" parent="1">
          <mxGeometry width="50" height="50" relative="1" as="geometry">
            <mxPoint x="-825.75" y="216" as="sourcePoint" />
            <mxPoint x="-591.75" y="216" as="targetPoint" />
          </mxGeometry>
        </mxCell>
        <mxCell id="WDNG_T85-IMVq7KmOstd-86" value="Admin Name" style="rounded=0;whiteSpace=wrap;html=1;fontSize=8;" vertex="1" parent="1">
          <mxGeometry x="-653.75" y="185" width="55" height="22" as="geometry" />
        </mxCell>
        <mxCell id="WDNG_T85-IMVq7KmOstd-87" value="Books4You" style="text;html=1;align=center;verticalAlign=middle;whiteSpace=wrap;rounded=0;" vertex="1" parent="1">
          <mxGeometry x="-808.75" y="181" width="60" height="30" as="geometry" />
        </mxCell>
        <mxCell id="WDNG_T85-IMVq7KmOstd-88" value="comedy" style="whiteSpace=wrap;html=1;aspect=fixed;" vertex="1" parent="1">
          <mxGeometry x="-808.75" y="254" width="53" height="53" as="geometry" />
        </mxCell>
        <mxCell id="WDNG_T85-IMVq7KmOstd-89" value="List of books that has been added" style="text;html=1;align=center;verticalAlign=middle;whiteSpace=wrap;rounded=0;" vertex="1" parent="1">
          <mxGeometry x="-812.25" y="220" width="167.25" height="30" as="geometry" />
        </mxCell>
        <mxCell id="WDNG_T85-IMVq7KmOstd-90" value="Horror-Crime-mystery" style="whiteSpace=wrap;html=1;aspect=fixed;fontSize=9;" vertex="1" parent="1">
          <mxGeometry x="-737.75" y="254" width="53" height="53" as="geometry" />
        </mxCell>
        <mxCell id="WDNG_T85-IMVq7KmOstd-91" value="SCI-Fiction" style="whiteSpace=wrap;html=1;aspect=fixed;" vertex="1" parent="1">
          <mxGeometry x="-666.75" y="254" width="53" height="53" as="geometry" />
        </mxCell>
        <mxCell id="WDNG_T85-IMVq7KmOstd-92" value="fantasy-fairy tale" style="whiteSpace=wrap;html=1;aspect=fixed;" vertex="1" parent="1">
          <mxGeometry x="-808.75" y="321" width="53" height="53" as="geometry" />
        </mxCell>
        <mxCell id="WDNG_T85-IMVq7KmOstd-93" value="movie books" style="whiteSpace=wrap;html=1;aspect=fixed;" vertex="1" parent="1">
          <mxGeometry x="-737.75" y="321" width="53" height="53" as="geometry" />
        </mxCell>
        <mxCell id="WDNG_T85-IMVq7KmOstd-94" value="drama-romance" style="whiteSpace=wrap;html=1;aspect=fixed;" vertex="1" parent="1">
          <mxGeometry x="-666.75" y="321" width="53" height="53" as="geometry" />
        </mxCell>
        <mxCell id="WDNG_T85-IMVq7KmOstd-95" value="kids" style="whiteSpace=wrap;html=1;aspect=fixed;" vertex="1" parent="1">
          <mxGeometry x="-808.75" y="388" width="53" height="53" as="geometry" />
        </mxCell>
        <mxCell id="WDNG_T85-IMVq7KmOstd-96" value="learning" style="whiteSpace=wrap;html=1;aspect=fixed;" vertex="1" parent="1">
          <mxGeometry x="-737.75" y="388" width="53" height="53" as="geometry" />
        </mxCell>
        <mxCell id="WDNG_T85-IMVq7KmOstd-97" value="novels" style="whiteSpace=wrap;html=1;aspect=fixed;" vertex="1" parent="1">
          <mxGeometry x="-666.75" y="388" width="53" height="53" as="geometry" />
        </mxCell>
        <mxCell id="WDNG_T85-IMVq7KmOstd-98" value="" style="endArrow=classic;html=1;rounded=0;" edge="1" parent="1">
          <mxGeometry width="50" height="50" relative="1" as="geometry">
            <mxPoint x="-591.75" y="333" as="sourcePoint" />
            <mxPoint x="-467.75" y="333" as="targetPoint" />
          </mxGeometry>
        </mxCell>
        <mxCell id="WDNG_T85-IMVq7KmOstd-99" value="" style="rounded=0;whiteSpace=wrap;html=1;" vertex="1" parent="1">
          <mxGeometry x="-464.75" y="177" width="231" height="284" as="geometry" />
        </mxCell>
        <mxCell id="WDNG_T85-IMVq7KmOstd-100" value="" style="endArrow=none;html=1;rounded=0;exitX=0.003;exitY=0.139;exitDx=0;exitDy=0;exitPerimeter=0;" edge="1" parent="1" source="WDNG_T85-IMVq7KmOstd-99">
          <mxGeometry width="50" height="50" relative="1" as="geometry">
            <mxPoint x="-315.75" y="216" as="sourcePoint" />
            <mxPoint x="-233.75" y="216" as="targetPoint" />
          </mxGeometry>
        </mxCell>
        <mxCell id="WDNG_T85-IMVq7KmOstd-101" value="Admin name" style="rounded=0;whiteSpace=wrap;html=1;fontSize=8;" vertex="1" parent="1">
          <mxGeometry x="-295.75" y="185" width="55" height="22" as="geometry" />
        </mxCell>
        <mxCell id="WDNG_T85-IMVq7KmOstd-102" value="Books4You" style="text;html=1;align=center;verticalAlign=middle;whiteSpace=wrap;rounded=0;" vertex="1" parent="1">
          <mxGeometry x="-457.75" y="181" width="60" height="30" as="geometry" />
        </mxCell>
        <mxCell id="WDNG_T85-IMVq7KmOstd-104" value="Add book" style="text;html=1;align=center;verticalAlign=middle;whiteSpace=wrap;rounded=0;" vertex="1" parent="1">
          <mxGeometry x="-458.75" y="216.5" width="60" height="30" as="geometry" />
        </mxCell>
        <mxCell id="WDNG_T85-IMVq7KmOstd-105" value="When the admin clicks on add book it will take him to the adding page" style="text;html=1;align=center;verticalAlign=middle;whiteSpace=wrap;rounded=0;fontSize=10;" vertex="1" parent="1">
          <mxGeometry x="-591.75" y="277" width="123" height="30" as="geometry" />
        </mxCell>
        <mxCell id="WDNG_T85-IMVq7KmOstd-110" value="" style="rounded=0;whiteSpace=wrap;html=1;" vertex="1" parent="1">
          <mxGeometry x="-363.06" y="238.5" width="89" height="23" as="geometry" />
        </mxCell>
        <mxCell id="WDNG_T85-IMVq7KmOstd-119" value="" style="endArrow=classic;html=1;rounded=0;" edge="1" parent="1">
          <mxGeometry width="50" height="50" relative="1" as="geometry">
            <mxPoint x="-356.63" y="457" as="sourcePoint" />
            <mxPoint x="-356.75" y="539" as="targetPoint" />
          </mxGeometry>
        </mxCell>
        <mxCell id="WDNG_T85-IMVq7KmOstd-120" value="" style="rounded=0;whiteSpace=wrap;html=1;" vertex="1" parent="1">
          <mxGeometry x="-464.75" y="541" width="231" height="284" as="geometry" />
        </mxCell>
        <mxCell id="WDNG_T85-IMVq7KmOstd-121" value="" style="endArrow=none;html=1;rounded=0;exitX=0.003;exitY=0.139;exitDx=0;exitDy=0;exitPerimeter=0;" edge="1" parent="1" source="WDNG_T85-IMVq7KmOstd-120">
          <mxGeometry width="50" height="50" relative="1" as="geometry">
            <mxPoint x="-315.75" y="580" as="sourcePoint" />
            <mxPoint x="-233.75" y="580" as="targetPoint" />
          </mxGeometry>
        </mxCell>
        <mxCell id="WDNG_T85-IMVq7KmOstd-123" value="Books4You" style="text;html=1;align=center;verticalAlign=middle;whiteSpace=wrap;rounded=0;" vertex="1" parent="1">
          <mxGeometry x="-457.75" y="545" width="60" height="30" as="geometry" />
        </mxCell>
        <mxCell id="WDNG_T85-IMVq7KmOstd-124" value="Book name" style="text;html=1;align=center;verticalAlign=middle;whiteSpace=wrap;rounded=0;fontSize=11;" vertex="1" parent="1">
          <mxGeometry x="-458.75" y="584" width="73.5" height="30" as="geometry" />
        </mxCell>
        <mxCell id="WDNG_T85-IMVq7KmOstd-126" value="the page should be like this&amp;nbsp;" style="text;html=1;align=center;verticalAlign=middle;whiteSpace=wrap;rounded=0;fontSize=10;" vertex="1" parent="1">
          <mxGeometry x="-342.75" y="484" width="123" height="30" as="geometry" />
        </mxCell>
        <mxCell id="WDNG_T85-IMVq7KmOstd-127" value="Book pic" style="whiteSpace=wrap;html=1;aspect=fixed;" vertex="1" parent="1">
          <mxGeometry x="-448.75" y="619" width="54" height="54" as="geometry" />
        </mxCell>
        <mxCell id="WDNG_T85-IMVq7KmOstd-128" value="author:&lt;div style=&quot;font-size: 8px;&quot;&gt;publish date:&lt;/div&gt;&lt;div style=&quot;font-size: 8px;&quot;&gt;&lt;br style=&quot;font-size: 8px;&quot;&gt;&lt;/div&gt;" style="text;html=1;align=center;verticalAlign=middle;whiteSpace=wrap;rounded=0;fontSize=8;" vertex="1" parent="1">
          <mxGeometry x="-457.75" y="678" width="73.5" height="30" as="geometry" />
        </mxCell>
        <mxCell id="WDNG_T85-IMVq7KmOstd-129" value="summery" style="whiteSpace=wrap;html=1;aspect=fixed;" vertex="1" parent="1">
          <mxGeometry x="-354.75" y="627" width="93" height="93" as="geometry" />
        </mxCell>
        <mxCell id="WDNG_T85-IMVq7KmOstd-130" value="people review and rating&amp;nbsp;" style="rounded=0;whiteSpace=wrap;html=1;" vertex="1" parent="1">
          <mxGeometry x="-394.75" y="743" width="120" height="60" as="geometry" />
        </mxCell>
        <mxCell id="WDNG_T85-IMVq7KmOstd-131" value="&lt;div style=&quot;font-size: 6px;&quot;&gt;find book in:&lt;/div&gt;&lt;div style=&quot;font-size: 6px;&quot;&gt;name of place - link - price&lt;/div&gt;" style="text;html=1;align=center;verticalAlign=middle;whiteSpace=wrap;rounded=0;fontSize=6;" vertex="1" parent="1">
          <mxGeometry x="-454.25" y="702" width="73.5" height="30" as="geometry" />
        </mxCell>
        <mxCell id="WDNG_T85-IMVq7KmOstd-133" value="if there are more chapters will appear here" style="rounded=0;whiteSpace=wrap;html=1;fontSize=8;" vertex="1" parent="1">
          <mxGeometry x="-452.75" y="737.5" width="50" height="71" as="geometry" />
        </mxCell>
        <mxCell id="WDNG_T85-IMVq7KmOstd-143" value="Admin page" style="text;html=1;align=center;verticalAlign=middle;whiteSpace=wrap;rounded=0;fontSize=20;" vertex="1" parent="1">
          <mxGeometry x="-825" y="81" width="145.12" height="30" as="geometry" />
        </mxCell>
        <mxCell id="WDNG_T85-IMVq7KmOstd-144" value="The admin must log in so he can add books" style="text;html=1;align=center;verticalAlign=middle;whiteSpace=wrap;rounded=0;fontSize=10;" vertex="1" parent="1">
          <mxGeometry x="-781" y="129" width="123" height="30" as="geometry" />
        </mxCell>
        <mxCell id="WDNG_T85-IMVq7KmOstd-145" value="Add book" style="rounded=0;whiteSpace=wrap;html=1;fontSize=8;" vertex="1" parent="1">
          <mxGeometry x="-719.75" y="185" width="55" height="22" as="geometry" />
        </mxCell>
        <mxCell id="WDNG_T85-IMVq7KmOstd-146" value="Book name" style="text;html=1;align=center;verticalAlign=middle;whiteSpace=wrap;rounded=0;fontSize=9;" vertex="1" parent="1">
          <mxGeometry x="-425.31" y="235" width="60" height="30" as="geometry" />
        </mxCell>
        <mxCell id="WDNG_T85-IMVq7KmOstd-147" value="" style="rounded=0;whiteSpace=wrap;html=1;" vertex="1" parent="1">
          <mxGeometry x="-362.06" y="271.5" width="89" height="23" as="geometry" />
        </mxCell>
        <mxCell id="WDNG_T85-IMVq7KmOstd-148" value="Category" style="text;html=1;align=center;verticalAlign=middle;whiteSpace=wrap;rounded=0;fontSize=10;" vertex="1" parent="1">
          <mxGeometry x="-425.31" y="268" width="60" height="30" as="geometry" />
        </mxCell>
        <mxCell id="WDNG_T85-IMVq7KmOstd-149" value="" style="rounded=0;whiteSpace=wrap;html=1;" vertex="1" parent="1">
          <mxGeometry x="-362.06" y="301.5" width="89" height="23" as="geometry" />
        </mxCell>
        <mxCell id="WDNG_T85-IMVq7KmOstd-150" value="Auther" style="text;html=1;align=center;verticalAlign=middle;whiteSpace=wrap;rounded=0;fontSize=10;" vertex="1" parent="1">
          <mxGeometry x="-425.31" y="298" width="60" height="30" as="geometry" />
        </mxCell>
        <mxCell id="WDNG_T85-IMVq7KmOstd-151" value="" style="rounded=0;whiteSpace=wrap;html=1;" vertex="1" parent="1">
          <mxGeometry x="-362.06" y="335.5" width="89" height="23" as="geometry" />
        </mxCell>
        <mxCell id="WDNG_T85-IMVq7KmOstd-152" value="Publish date" style="text;html=1;align=center;verticalAlign=middle;whiteSpace=wrap;rounded=0;fontSize=10;" vertex="1" parent="1">
          <mxGeometry x="-425.31" y="332" width="60" height="30" as="geometry" />
        </mxCell>
        <mxCell id="WDNG_T85-IMVq7KmOstd-153" value="" style="rounded=0;whiteSpace=wrap;html=1;" vertex="1" parent="1">
          <mxGeometry x="-362.19" y="369.5" width="89" height="23" as="geometry" />
        </mxCell>
        <mxCell id="WDNG_T85-IMVq7KmOstd-154" value="Summery" style="text;html=1;align=center;verticalAlign=middle;whiteSpace=wrap;rounded=0;fontSize=10;" vertex="1" parent="1">
          <mxGeometry x="-425.44" y="366" width="60" height="30" as="geometry" />
        </mxCell>
        <mxCell id="WDNG_T85-IMVq7KmOstd-155" value="" style="rounded=0;whiteSpace=wrap;html=1;" vertex="1" parent="1">
          <mxGeometry x="-362.06" y="402.5" width="89" height="23" as="geometry" />
        </mxCell>
        <mxCell id="WDNG_T85-IMVq7KmOstd-156" value="Picture" style="text;html=1;align=center;verticalAlign=middle;whiteSpace=wrap;rounded=0;fontSize=10;" vertex="1" parent="1">
          <mxGeometry x="-425.31" y="399" width="60" height="30" as="geometry" />
        </mxCell>
        <mxCell id="WDNG_T85-IMVq7KmOstd-157" value="" style="rounded=0;whiteSpace=wrap;html=1;" vertex="1" parent="1">
          <mxGeometry x="-363.06" y="432.5" width="89" height="23" as="geometry" />
        </mxCell>
        <mxCell id="WDNG_T85-IMVq7KmOstd-158" value="Find Book" style="text;html=1;align=center;verticalAlign=middle;whiteSpace=wrap;rounded=0;fontSize=10;" vertex="1" parent="1">
          <mxGeometry x="-426.31" y="429" width="60" height="30" as="geometry" />
        </mxCell>
        <mxCell id="WDNG_T85-IMVq7KmOstd-159" value="The admin should add all the details needed about the book" style="text;html=1;align=center;verticalAlign=middle;whiteSpace=wrap;rounded=0;fontSize=10;" vertex="1" parent="1">
          <mxGeometry x="-216.75" y="292.5" width="123" height="30" as="geometry" />
        </mxCell>
        <mxCell id="WDNG_T85-IMVq7KmOstd-160" value="Edit/del" style="rounded=0;whiteSpace=wrap;html=1;fontSize=7;" vertex="1" parent="1">
          <mxGeometry x="-800" y="308" width="30" height="10" as="geometry" />
        </mxCell>
        <mxCell id="WDNG_T85-IMVq7KmOstd-171" value="" style="endArrow=classic;html=1;rounded=0;" edge="1" parent="1">
          <mxGeometry width="50" height="50" relative="1" as="geometry">
            <mxPoint x="-625.25" y="445.81" as="sourcePoint" />
            <mxPoint x="-468" y="648" as="targetPoint" />
          </mxGeometry>
        </mxCell>
        <mxCell id="WDNG_T85-IMVq7KmOstd-172" value="The admin can edit what they add, and it takes them back to their add sheet" style="text;html=1;align=center;verticalAlign=middle;whiteSpace=wrap;rounded=0;fontSize=10;" vertex="1" parent="1">
          <mxGeometry x="-649" y="593" width="123" height="30" as="geometry" />
        </mxCell>
        <mxCell id="WDNG_T85-IMVq7KmOstd-175" value="add" style="rounded=0;whiteSpace=wrap;html=1;fontSize=9;" vertex="1" parent="1">
          <mxGeometry x="-457.75" y="445.5" width="30" height="10" as="geometry" />
        </mxCell>
        <mxCell id="WDNG_T85-IMVq7KmOstd-176" value="Edit/del" style="rounded=0;whiteSpace=wrap;html=1;fontSize=7;" vertex="1" parent="1">
          <mxGeometry x="-726.25" y="308" width="30" height="10" as="geometry" />
        </mxCell>
        <mxCell id="WDNG_T85-IMVq7KmOstd-177" value="Edit/del" style="rounded=0;whiteSpace=wrap;html=1;fontSize=7;" vertex="1" parent="1">
          <mxGeometry x="-653.75" y="308" width="30" height="10" as="geometry" />
        </mxCell>
        <mxCell id="WDNG_T85-IMVq7KmOstd-178" value="Edit/del" style="rounded=0;whiteSpace=wrap;html=1;fontSize=7;" vertex="1" parent="1">
          <mxGeometry x="-800" y="374" width="30" height="10" as="geometry" />
        </mxCell>
        <mxCell id="WDNG_T85-IMVq7KmOstd-179" value="Edit/del" style="rounded=0;whiteSpace=wrap;html=1;fontSize=7;" vertex="1" parent="1">
          <mxGeometry x="-726.25" y="374" width="30" height="10" as="geometry" />
        </mxCell>
        <mxCell id="WDNG_T85-IMVq7KmOstd-180" value="Edit/del" style="rounded=0;whiteSpace=wrap;html=1;fontSize=7;" vertex="1" parent="1">
          <mxGeometry x="-653.75" y="375" width="30" height="10" as="geometry" />
        </mxCell>
        <mxCell id="WDNG_T85-IMVq7KmOstd-181" value="Edit/del" style="rounded=0;whiteSpace=wrap;html=1;fontSize=7;" vertex="1" parent="1">
          <mxGeometry x="-655.25" y="441" width="30" height="10" as="geometry" />
        </mxCell>
        <mxCell id="WDNG_T85-IMVq7KmOstd-182" value="Edit/del" style="rounded=0;whiteSpace=wrap;html=1;fontSize=7;" vertex="1" parent="1">
          <mxGeometry x="-726.25" y="441" width="30" height="10" as="geometry" />
        </mxCell>
        <mxCell id="WDNG_T85-IMVq7KmOstd-183" value="Edit/del" style="rounded=0;whiteSpace=wrap;html=1;fontSize=7;" vertex="1" parent="1">
          <mxGeometry x="-800" y="441" width="30" height="10" as="geometry" />
        </mxCell>
        <mxCell id="WDNG_T85-IMVq7KmOstd-184" value="DEl" style="rounded=0;whiteSpace=wrap;html=1;fontSize=9;" vertex="1" parent="1">
          <mxGeometry x="799.25" y="243" width="31.25" height="14" as="geometry" />
        </mxCell>
        <mxCell id="WDNG_T85-IMVq7KmOstd-185" value="DEl" style="rounded=0;whiteSpace=wrap;html=1;fontSize=9;" vertex="1" parent="1">
          <mxGeometry x="797" y="314" width="31.25" height="14" as="geometry" />
        </mxCell>
        <mxCell id="WDNG_T85-IMVq7KmOstd-186" value="DEl" style="rounded=0;whiteSpace=wrap;html=1;fontSize=9;" vertex="1" parent="1">
          <mxGeometry x="797" y="378.5" width="31.25" height="14" as="geometry" />
        </mxCell>
      </root>
    </mxGraphModel>
  </diagram>
</mxfile>
